HIERARCHY
ROOT root
{
	OFFSET	0	13.1	24.9
	CHANNELS 6  Xposition Yposition Zposition Xrotation Yrotation Zrotation
	JOINT spine_1
	{
		OFFSET	0	9.99999	0
		CHANNELS 3  Xrotation Yrotation Zrotation
		JOINT spine_2
		{
			OFFSET	0	112	-10
			CHANNELS 3  Xrotation Yrotation Zrotation
			JOINT spine_3
			{
				OFFSET	0	206.5	19.3
				CHANNELS 3  Xrotation Yrotation Zrotation
				JOINT spine_4
				{
					OFFSET	0	110.4	14.6
					CHANNELS 3  Xrotation Yrotation Zrotation
					JOINT neck_1
					{
						OFFSET	0	71.8	-50.3
						CHANNELS 3  Xrotation Yrotation Zrotation
						JOINT neck_2
						{
							OFFSET	0	86.2	-25.8
							CHANNELS 3  Xrotation Yrotation Zrotation
							JOINT head_ee
							{
								OFFSET	0	179.8	-8.7
								CHANNELS 3  Xrotation Yrotation Zrotation
								End Site
								{
									OFFSET	1	0	0
								}
							}
						}
					}
					JOINT left_clavicle
					{
						OFFSET	-43.2	22.4	-70.8
						CHANNELS 3  Xrotation Yrotation Zrotation
						JOINT left_shoulder
						{
							OFFSET	-93.9	-5.79999	48.7
							CHANNELS 3  Xrotation Yrotation Zrotation
							JOINT left_elbow
							{
								OFFSET	-291.4	-30.8	15.2
								CHANNELS 3  Xrotation Yrotation Zrotation
								JOINT left_lowarm_twist
								{
									OFFSET	-110.7	-3.89999	13.6
									CHANNELS 3  Xrotation Yrotation Zrotation
									JOINT left_hand
									{
										OFFSET	-110.7	-3.89999	13.6
										CHANNELS 3  Xrotation Yrotation Zrotation
										JOINT left_ee
										{
											OFFSET	-80.8	-5.10001	12.1
											CHANNELS 3  Xrotation Yrotation Zrotation
											End Site
											{
												OFFSET	1	0	0
											}
										}
									}
								}
							}
						}
					}
					JOINT right_clavicle
					{
						OFFSET	43.2	22.4	-70.8
						CHANNELS 3  Xrotation Yrotation Zrotation
						JOINT right_shoulder
						{
							OFFSET	93.9	-5.79999	48.7
							CHANNELS 3  Xrotation Yrotation Zrotation
							JOINT right_elbow
							{
								OFFSET	291.4	-30.8	15.2
								CHANNELS 3  Xrotation Yrotation Zrotation
								JOINT right_lowarm_twist
								{
									OFFSET	110.7	-3.89999	13.6
									CHANNELS 3  Xrotation Yrotation Zrotation
									JOINT right_hand
									{
										OFFSET	110.7	-3.89999	13.6
										CHANNELS 3  Xrotation Yrotation Zrotation
										JOINT right_ee
										{
											OFFSET	80.8	-5.10001	12.1
											CHANNELS 3  Xrotation Yrotation Zrotation
											End Site
											{
												OFFSET	1	0	0
											}
										}
									}
								}
							}
						}
					}
				}
			}
		}
	}
	JOINT left_hip
	{
		OFFSET	-82.8	-127.5	0.300001
		CHANNELS 3  Xrotation Yrotation Zrotation
		JOINT left_knee
		{
			OFFSET	-28.2	-396.7	2.2
			CHANNELS 3  Xrotation Yrotation Zrotation
			JOINT left_ankle
			{
				OFFSET	-11.7	-411.3	35.4
				CHANNELS 3  Xrotation Yrotation Zrotation
				JOINT left_toes
				{
					OFFSET	0	-60	-88.6
					CHANNELS 3  Xrotation Yrotation Zrotation
					JOINT left_foot_ee
					{
						OFFSET	-22.5	-16.5	-42.2
						CHANNELS 3  Xrotation Yrotation Zrotation
						End Site
						{
							OFFSET	1	0	0
						}
					}
				}
			}
		}
	}
	JOINT right_hip
	{
		OFFSET	82.8	-127.5	0.300001
		CHANNELS 3  Xrotation Yrotation Zrotation
		JOINT right_knee
		{
			OFFSET	28.2	-396.7	2.2
			CHANNELS 3  Xrotation Yrotation Zrotation
			JOINT right_ankle
			{
				OFFSET	11.7	-411.3	35.4
				CHANNELS 3  Xrotation Yrotation Zrotation
				JOINT right_toes
				{
					OFFSET	0	-60	-88.6
					CHANNELS 3  Xrotation Yrotation Zrotation
					JOINT right_foot_ee
					{
						OFFSET	22.5	-16.5	-42.2
						CHANNELS 3  Xrotation Yrotation Zrotation
						End Site
						{
							OFFSET	1	0	0
						}
					}
				}
			}
		}
	}
}
MOTION
Frames: 16
Frame Time: 0.02
1161.71731631 734.781 -1746.02186077 2.04641140219 33.4534881699 -8.53430066368 2.23971 0.666431 1.80547 2.24136 0.550214 1.8442 2.25909 0.226017 1.91119 2.25438 0.524966 1.85155 -5.40286 1.57226 3.22079 -5.3743 0.492938 3.54974 -0.0 0.0 -0.0 1.79105 9.72725 4.24998 -26.9672 -30.7016 68.6703 0.407043 -11.4003 0.0406296 45.5443 -0.668601 -5.62851 0.234757 -3.74445 -0.00513996 -0.0 0.0 -0.0 11.6231 17.2035 -23.2427 12.2308 -20.9847 -62.0794 0.812466 21.9233 -0.157366 80.3828 3.88276 8.6312 1.31988 0.209008 -8.76685 0.0 0.0 0.0 33.2486 1.21505 1.1116 -73.403 -3.80709 9.82173 28.5264 -22.5892 -4.25468 -18.1482 0.0 0.0 -0.0 0.0 -0.0 12.5608 -10.9796 6.50928 -17.0729 -0.319001 -2.5909 19.8363 16.1184 2.94909 23.9063 -0.0 -0.0 0.0 0.0 0.0 
1168.16231875 734.781 -1750.90695845 2.01557102476 32.1029668867 -8.47733931465 2.23971 0.666431 1.80547 2.24136 0.550214 1.8442 2.25909 0.226017 1.91119 2.25438 0.524966 1.85155 -5.40286 1.57226 3.22079 -5.3743 0.492938 3.54974 -0.0 0.0 -0.0 1.79105 9.72725 4.24998 -26.9672 -30.7016 68.6703 0.407043 -11.4003 0.0406296 45.5443 -0.668601 -5.62851 0.234757 -3.74445 -0.00513996 -0.0 0.0 -0.0 11.6231 17.2035 -23.2427 12.2308 -20.9847 -62.0794 0.812466 21.9233 -0.157366 80.3828 3.88276 8.6312 1.31988 0.209008 -8.76685 0.0 0.0 0.0 33.2486 1.21505 1.1116 -73.403 -3.80709 9.82173 28.5264 -22.5892 -4.25468 -18.1482 0.0 0.0 -0.0 0.0 -0.0 12.5608 -10.9796 6.50928 -17.0729 -0.319001 -2.5909 19.8363 16.1184 2.94909 23.9063 -0.0 -0.0 0.0 0.0 0.0 
1169.62416555 734.781 -1751.98211297 2.00893049971 31.7999315053 -8.46479113625 2.23971 0.666431 1.80547 2.24136 0.550214 1.8442 2.25909 0.226017 1.91119 2.25438 0.524966 1.85155 -5.40286 1.57226 3.22079 -5.3743 0.492938 3.54974 -0.0 0.0 -0.0 1.79105 9.72725 4.24998 -26.9672 -30.7016 68.6703 0.407043 -11.4003 0.0406296 45.5443 -0.668601 -5.62851 0.234757 -3.74445 -0.00513996 -0.0 0.0 -0.0 11.6231 17.2035 -23.2427 12.2308 -20.9847 -62.0794 0.812466 21.9233 -0.157366 80.3828 3.88276 8.6312 1.31988 0.209008 -8.76685 0.0 0.0 0.0 33.2486 1.21505 1.1116 -73.403 -3.80709 9.82173 28.5264 -22.5892 -4.25468 -18.1482 0.0 0.0 -0.0 0.0 -0.0 12.5608 -10.9796 6.50928 -17.0729 -0.319001 -2.5909 19.8363 16.1184 2.94909 23.9063 -0.0 -0.0 0.0 0.0 0.0 
1152.31966187 733.836 -1744.02448323 1.3106417194 37.5068356351 -8.13397124732 2.303 0.764358 1.94826 2.30488 0.638861 1.99292 2.32712 0.290391 2.07254 2.32165 0.614001 2.00072 -6.07696 1.28619 3.9992 -6.03144 -0.567802 4.27574 -0.0 0.0 -0.0 1.84413 7.78169 4.19323 -26.8088 -32.5981 68.992 0.308364 -8.68525 0.0234168 45.7076 -0.678934 -5.64668 0.0745224 -4.96873 -1.60308 -0.0 0.0 -0.0 11.5522 17.9027 -23.0434 16.4784 -20.4167 -62.6823 0.866522 23.2312 -0.17812 81.8873 4.05785 8.71255 1.45483 2.65524 -8.68376 0.0 0.0 0.0 37.5404 -4.35699 3.13529 -69.6363 -3.32527 9.49568 25.1186 -18.1251 -3.68144 -17.6064 0.0 0.0 -0.0 0.0 -0.0 12.812 -13.2496 6.52334 -16.7548 -0.320159 -2.54211 20.4427 14.0561 2.98557 24.4848 -0.0 -0.0 0.0 0.0 0.0 
1128.48947849 730.159 -1742.38975193 0.926781248452 35.1557060561 -7.50878902942 2.19483 0.607203 1.65559 2.19622 0.500639 1.69086 2.21103 0.201956 1.75179 2.20706 0.476045 1.69794 -6.29933 1.8745 4.01836 -6.25463 0.522795 4.40276 -0.0 0.0 -0.0 1.25956 13.0524 3.61865 -28.2609 -34.0066 69.209 0.380151 -10.665 0.0354831 43.9715 -0.57179 -5.45207 0.0931341 -5.19047 -1.57182 -0.0 0.0 -0.0 11.8324 25.3353 -23.072 18.5607 -16.8126 -62.1123 0.834404 22.4571 -0.165651 83.9139 4.29695 8.81482 1.06529 4.44234 -5.30118 0.0 0.0 0.0 38.7167 -1.81045 -0.836063 -67.6852 -3.08444 9.31461 23.2992 -16.8539 -3.41749 -17.096 0.0 0.0 -0.0 0.0 -0.0 12.4794 -11.1866 6.21417 -17.4324 -0.317367 -2.64604 22.3609 14.7139 3.24652 25.3454 -0.0 -0.0 0.0 0.0 0.0 
1107.03557254 729.072 -1751.62804515 -0.00842635552544 39.5214043217 -6.52489609178 2.30883 0.880314 1.96303 2.31065 0.753644 2.01504 2.33723 0.400189 2.11378 2.33173 0.728931 2.02411 -6.96941 -0.416436 2.20797 -6.95434 -2.36958 2.12462 -0.0 0.0 -0.0 1.18602 8.87326 3.12586 -30.5042 -37.4771 71.2387 0.301223 -8.48708 0.0223507 43.3161 -0.532889 -5.37779 -0.0813009 -4.89158 -2.62101 -0.0 0.0 -0.0 12.0321 23.184 -23.7455 22.1637 -15.7759 -60.1893 0.910263 24.2711 -0.195739 85.2674 4.45856 8.87838 1.00709 3.98783 -5.09751 0.0 0.0 0.0 40.8923 -3.35471 -0.579822 -59.0177 -2.09485 8.41633 19.5501 -20.7039 -3.02415 -20.9966 0.0 0.0 -0.0 0.0 -0.0 14.1069 -19.5495 8.55705 -19.2374 -0.303933 -2.92265 25.5909 12.9008 3.60456 25.4204 -0.0 -0.0 0.0 0.0 0.0 
1093.15124122 726.911 -1750.97548028 -0.0886508679649 38.0391641294 -6.65584498047 2.13692 1.05801 1.87914 2.1384 0.936311 1.94263 2.17044 0.586583 2.07514 2.16557 0.90689 1.95653 -6.06568 0.101392 2.1034 -6.05224 -1.36145 2.14066 -0.0 0.0 -0.0 1.1438 11.6242 3.30116 -32.1465 -38.5432 70.175 0.349349 -9.81841 0.0300065 41.4136 -0.424821 -5.15971 -0.0748873 -4.38409 -2.36147 -0.0 0.0 -0.0 13.1565 27.3042 -25.8781 23.6815 -13.3694 -57.7025 1.05269 27.5402 -0.25799 85.1422 4.44356 8.87267 0.597652 3.0392 -2.73268 0.0 0.0 0.0 40.3943 1.36124 -3.17889 -53.042 -1.4973 7.71575 19.1977 -23.308 -3.05146 -22.3906 0.0 0.0 -0.0 0.0 -0.0 14.1195 -14.7655 8.5366 -21.9497 -0.26738 -3.33718 26.2675 12.4525 3.67502 25.057 -0.0 -0.0 0.0 0.0 0.0 
1072.9740612 722.894 -1752.64736269 -0.404612970219 39.3982444521 -5.91388477314 2.04037 0.985131 1.75217 2.04166 0.871659 1.81128 2.06952 0.542131 1.93558 2.06527 0.840967 1.82573 -4.72467 -0.322772 1.40478 -4.71764 -1.65391 1.38098 -0.0 0.0 -0.0 1.04537 11.8294 3.15408 -32.3058 -39.0284 71.2613 0.369472 -10.372 0.0335337 40.9871 -0.401601 -5.11036 -0.213708 -3.15124 -2.77062 -0.0 0.0 -0.0 13.0225 27.3653 -25.5613 22.6826 -10.0286 -57.1495 1.27748 32.3252 -0.370252 83.8986 4.29513 8.81408 0.538452 -2.04484 -4.43842 0.0 0.0 0.0 41.199 1.8428 -4.10854 -47.7029 -1.02805 7.04088 18.4058 -24.6537 -2.98004 -24.4073 0.0 0.0 -0.0 0.0 -0.0 14.4425 -15.8985 9.26371 -23.8383 -0.230358 -3.62461 28.2266 12.4554 3.90218 25.1503 -0.0 -0.0 0.0 0.0 0.0 
1060.06293797 720.687 -1759.46359364 -0.522487290383 39.0520807354 -5.5088259631 1.97064 0.966396 1.58166 1.97162 0.863807 1.63993 1.99666 0.562037 1.76622 1.99327 0.833888 1.65534 -3.85261 -0.344645 1.2868 -3.84626 -1.61752 1.27266 -0.0 0.0 -0.0 1.21823 11.196 3.38906 -32.3594 -41.2483 72.7058 0.310376 -8.74102 0.0237215 39.6115 -0.329212 -4.95 -0.150941 -1.02216 -1.44195 -0.0 0.0 -0.0 13.0032 27.589 -25.4882 23.2662 -9.14402 -57.391 1.46517 35.97 -0.475661 84.2163 4.33293 8.82936 0.670265 -5.79312 -6.82255 0.0 0.0 0.0 42.0696 0.586576 -4.50843 -44.205 -0.755722 6.57665 17.5019 -24.2258 -2.83424 -24.7518 0.0 0.0 -0.0 0.0 -0.0 14.0081 -15.8406 9.37488 -24.1757 -0.222746 -3.67584 30.9561 6.85484 4.09186 24.5066 -0.0 -0.0 0.0 0.0 0.0 
1056.78250013 720.687 -1755.82069659 -0.527493433856 39.7175570227 -5.50093651326 1.97064 0.966396 1.58166 1.97162 0.863807 1.63993 1.99666 0.562037 1.76622 1.99327 0.833888 1.65534 -3.85261 -0.344645 1.2868 -3.84626 -1.61752 1.27266 -0.0 0.0 -0.0 1.21823 11.196 3.38906 -32.3594 -41.2483 72.7058 0.310376 -8.74102 0.0237215 39.6115 -0.329212 -4.95 -0.150941 -1.02216 -1.44195 -0.0 0.0 -0.0 13.0032 27.589 -25.4882 23.2662 -9.14402 -57.391 1.46517 35.97 -0.475661 84.2163 4.33293 8.82936 0.670265 -5.79312 -6.82255 0.0 0.0 0.0 42.0696 0.586576 -4.50843 -44.205 -0.755722 6.57665 17.5019 -24.2258 -2.83424 -24.7518 0.0 0.0 -0.0 0.0 -0.0 14.0081 -15.8406 9.37488 -24.1757 -0.222746 -3.67584 30.9561 6.85484 4.09186 24.5066 -0.0 -0.0 0.0 0.0 0.0 
1029.42371595 715.275 -1772.42210279 -1.17637533802 41.2478819864 -4.82713169764 2.03522 0.992871 1.63837 2.03627 0.886621 1.69821 2.06285 0.576381 1.82693 2.05922 0.857636 1.71302 -3.30789 -0.524964 0.808423 -3.30452 -1.58244 0.759847 -0.0 0.0 -0.0 0.899355 12.1041 2.93479 -31.8758 -40.5711 72.888 0.263789 -7.44501 0.0171626 40.372 -0.36875 -5.03886 -0.0589015 0.625895 -0.129085 -0.0 0.0 -0.0 12.4602 26.8047 -24.3392 22.946 -9.07241 -57.9259 1.59691 38.3433 -0.555249 84.9757 4.42361 8.86501 0.6108 -9.40117 -7.84841 0.0 0.0 0.0 43.8471 0.680807 -5.08133 -38.9731 -0.402732 5.854 18.6393 -23.5041 -2.97764 -24.9499 0.0 0.0 -0.0 0.0 -0.0 12.4171 -15.696 9.72537 -24.993 -0.20306 -3.79971 32.1656 5.36263 4.19536 24.4503 -0.0 -0.0 0.0 0.0 0.0 
1018.37495874 712.636 -1779.20712607 -2.50084074695 36.7486781613 -3.2606326803 2.33344 0.893691 1.34046 2.33408 0.806592 1.3946 2.35386 0.558231 1.51123 2.35155 0.789872 1.40413 -2.90928 0.696248 2.2152 -2.89507 -0.465639 2.40669 -0.0 0.0 -0.0 0.764978 16.6695 3.14759 -32.1856 -38.6805 71.5707 0.283993 -8.0081 0.0198789 40.184 -0.358866 -5.01694 0.337842 1.06285 2.69779 -0.0 0.0 -0.0 13.1796 27.3008 -25.9319 20.4192 -1.49316 -57.8293 1.62136 38.7676 -0.570489 82.3499 4.11211 8.73664 0.160409 -13.9204 -6.72237 0.0 0.0 0.0 42.6213 -0.372576 -7.75029 -33.8845 -0.124215 5.12366 24.1472 -19.2832 -3.59387 -22.068 0.0 0.0 -0.0 0.0 -0.0 12.3645 -7.75641 7.58161 -25.9701 -0.177209 -3.94742 32.4889 5.01502 4.22362 23.3085 -0.0 -0.0 0.0 0.0 0.0 
1014.44979854 712.636 -1774.57982286 -2.52558261691 37.4934424713 -3.21963632411 2.33344 0.893691 1.34046 2.33408 0.806592 1.3946 2.35386 0.558231 1.51123 2.35155 0.789872 1.40413 -2.90928 0.696248 2.2152 -2.89507 -0.465639 2.40669 -0.0 0.0 -0.0 0.764978 16.6695 3.14759 -32.1856 -38.6805 71.5707 0.283993 -8.0081 0.0198789 40.184 -0.358866 -5.01694 0.337842 1.06285 2.69779 -0.0 0.0 -0.0 13.1796 27.3008 -25.9319 20.4192 -1.49316 -57.8293 1.62136 38.7676 -0.570489 82.3499 4.11211 8.73664 0.160409 -13.9204 -6.72237 0.0 0.0 0.0 42.6213 -0.372576 -7.75029 -33.8845 -0.124215 5.12366 24.1472 -19.2832 -3.59387 -22.068 0.0 0.0 -0.0 0.0 -0.0 12.3645 -7.75641 7.58161 -25.9701 -0.177209 -3.94742 32.4889 5.01502 4.22362 23.3085 -0.0 -0.0 0.0 0.0 0.0 
990.766019649 705.592 -1793.27329494 -2.98816489503 37.714388633 -3.12690056491 2.4163 0.986698 1.84254 2.41777 0.867475 1.90157 2.44664 0.535574 2.02027 2.44195 0.847859 1.91039 -2.39609 0.0975502 0.68679 -2.39459 -0.364408 0.732388 -0.0 0.0 -0.0 -0.0349552 14.7646 1.6817 -30.2296 -37.0174 72.7002 0.274057 -7.73137 0.0185184 42.4748 -0.484207 -5.28179 0.831459 3.8628 7.12265 -0.0 0.0 -0.0 12.9143 27.8449 -25.2504 18.6668 -6.11364 -59.443 2.09682 46.0819 -0.891898 81.5673 4.02044 8.69564 0.371361 -16.5512 -9.04502 0.0 0.0 0.0 40.7661 -6.59317 -6.20267 -24.8741 0.206035 3.7817 28.6425 -12.6683 -3.95433 -22.5275 0.0 0.0 -0.0 0.0 -0.0 10.8508 -7.01742 8.16163 -26.6093 -0.158931 -4.04382 35.5938 4.54173 4.52456 20.9873 -0.0 -0.0 0.0 0.0 0.0 
882.314453205 690.009 -1893.95525637 -5.75831978617 38.9253562835 4.63484919086 4.09053 0.45878 0.60751 4.09064 0.419193 0.635471 4.09523 0.326249 0.687827 4.09482 0.430782 0.627673 -1.43441 -0.627921 -5.23196 -1.34415 3.06111 -5.619 -0.0 0.0 -0.0 3.17384 7.15048 6.52582 -30.6075 -34.1518 68.8675 0.262634 -7.41277 0.0170132 47.3399 -0.78502 -5.82665 1.85544 8.76459 15.8275 -0.0 0.0 -0.0 11.0246 20.6294 -21.6642 7.72184 -14.0696 -61.3747 2.13007 46.532 -0.91594 73.7205 3.13529 8.21693 1.30578 -26.4946 -17.9822 0.0 0.0 0.0 34.7457 -17.6646 -7.12245 -13.058 0.313745 1.97504 40.3489 5.52413 -4.88814 -14.1181 0.0 0.0 -0.0 0.0 -0.0 5.45312 -1.93483 2.66535 -32.1739 0.0453196 -4.87305 35.7439 -2.87612 4.4747 25.19 -0.0 -0.0 0.0 0.0 0.0 
879.112929061 690.009 -1890.18164259 -5.79436931688 39.3631689449 4.69195466467 4.09053 0.45878 0.60751 4.09064 0.419193 0.635471 4.09523 0.326249 0.687827 4.09482 0.430782 0.627673 -1.43441 -0.627921 -5.23196 -1.34415 3.06111 -5.619 -0.0 0.0 -0.0 3.17384 7.15048 6.52582 -30.6075 -34.1518 68.8675 0.262634 -7.41277 0.0170132 47.3399 -0.78502 -5.82665 1.85544 8.76459 15.8275 -0.0 0.0 -0.0 11.0246 20.6294 -21.6642 7.72184 -14.0696 -61.3747 2.13007 46.532 -0.91594 73.7205 3.13529 8.21693 1.30578 -26.4946 -17.9822 0.0 0.0 0.0 34.7457 -17.6646 -7.12245 -13.058 0.313745 1.97504 40.3489 5.52413 -4.88814 -14.1181 0.0 0.0 -0.0 0.0 -0.0 5.45312 -1.93483 2.66535 -32.1739 0.0453196 -4.87305 35.7439 -2.87612 4.4747 25.19 -0.0 -0.0 0.0 0.0 0.0 
